<svg width="134" height="155" viewBox="0 0 134 155" fill="none" xmlns="http://www.w3.org/2000/svg">
<rect width="134" height="155" rx="8" fill="#F4F4F4"/>
<circle cx="67" cy="58" r="38" fill="#E4E4E4"/>
<path d="M71.6875 65.0312C71.2563 65.0312 70.9062 65.3813 70.9062 65.8125C70.9062 66.2437 71.2563 66.5938 71.6875 66.5938C72.1187 66.5938 72.4688 66.2437 72.4688 65.8125C72.4688 65.3813 72.1187 65.0312 71.6875 65.0312Z" fill="black"/>
<path d="M83.0938 38H50.9062C48.7523 38 47 39.7523 47 41.9062V65.8125C47 67.9664 48.7523 69.7188 50.9062 69.7188H63.0938V73.3125H62.3125C61.2694 73.3125 60.2889 73.719 59.5507 74.4569C58.8127 75.1951 58.4062 76.1757 58.4062 77.2188C58.4062 77.6503 58.756 78 59.1875 78H74.8125C75.244 78 75.5938 77.6503 75.5938 77.2188C75.5938 75.0648 73.8414 73.3125 71.6875 73.3125H70.9062V69.7188H83.0938C85.2477 69.7188 87 67.9664 87 65.8125V41.9062C87 39.7523 85.2477 38 83.0938 38ZM50.9062 39.5625H83.0938C84.3862 39.5625 85.4375 40.6138 85.4375 41.9062V61.9062H81.8438V43.9375C81.8438 43.506 81.494 43.1562 81.0625 43.1562H74.8125C74.381 43.1562 74.0312 43.506 74.0312 43.9375V61.9062H70.1207C70.1125 61.0981 70.0914 60.3016 70.0579 59.5289C69.9211 56.3472 69.6096 54.2158 69.4475 53.2783C71.0594 52.0915 71.4995 49.8918 70.5141 48.1828L67.8063 43.4929C67.6665 43.2512 67.4086 43.1022 67.1297 43.1022C66.8505 43.1022 66.5926 43.2512 66.4531 43.4929L63.7441 48.1831C62.8151 49.7944 63.1444 51.8815 64.6038 53.1132C64.4347 54.048 64.0935 56.2556 63.9452 59.5274C63.9101 60.3083 63.8878 61.1055 63.8793 61.9062H59.9688V50.1875C59.9688 50.0636 59.9395 49.9507 59.8915 49.8503C59.8894 49.8463 59.8882 49.842 59.8864 49.8381L56.7614 43.5881C56.6289 43.3235 56.3585 43.1562 56.0625 43.1562C55.7665 43.1562 55.4961 43.3235 55.3636 43.5881L52.2386 49.8381C52.2368 49.842 52.2356 49.8463 52.2338 49.8503C52.1849 49.9516 52.1562 50.0663 52.1562 50.1875V61.9062H48.5625V41.9062C48.5625 40.6138 49.6138 39.5625 50.9062 39.5625ZM75.5938 61.9062V44.7188H80.2812V46.2812H79.5C79.0685 46.2812 78.7188 46.631 78.7188 47.0625C78.7188 47.494 79.0685 47.8438 79.5 47.8438H80.2812V50.1875H79.5C79.0685 50.1875 78.7188 50.5372 78.7188 50.9688C78.7188 51.4003 79.0685 51.75 79.5 51.75H80.2812V54.0938H79.5C79.0685 54.0938 78.7188 54.4435 78.7188 54.875C78.7188 55.3065 79.0685 55.6562 79.5 55.6562H80.2812V58.7812H79.5C79.0685 58.7812 78.7188 59.131 78.7188 59.5625C78.7188 59.994 79.0685 60.3438 79.5 60.3438H80.2812V61.9062H75.5938ZM67.1297 54.0397C67.4135 54.0397 67.6961 54.0071 67.9726 53.946C68.1176 54.8753 68.3306 56.5196 68.4566 58.7812H65.5486C65.6807 56.5211 65.9038 54.8512 66.0579 53.8905C66.404 53.9891 66.7644 54.0397 67.1297 54.0397ZM67.1297 52.4772C65.3441 52.4772 64.1927 50.5339 65.0975 48.9641L67.1297 45.446L69.1606 48.9637C70.0621 50.5272 68.9266 52.4772 67.1297 52.4772ZM65.4769 60.3438H68.5253C68.5417 60.8571 68.553 61.3792 68.5585 61.9062H65.4418C65.4476 61.3826 65.4595 60.8604 65.4769 60.3438ZM56.8438 61.9062V50.9688H58.4062V61.9062H56.8438ZM53.7188 61.9062V50.9688H55.2812V61.9062H53.7188ZM54.2015 49.4062L56.0625 45.6843L57.9235 49.4062H54.2015ZM73.8973 76.4375H60.1018C60.2166 76.1119 60.4039 75.8134 60.6554 75.5616C61.0985 75.1188 61.6869 74.875 62.3125 74.875H71.6875C72.7062 74.875 73.575 75.5281 73.8973 76.4375ZM69.3438 73.3125H64.6562V69.7188H69.3438V73.3125ZM83.0938 68.1562H50.9062C49.6138 68.1562 48.5625 67.1049 48.5625 65.8125V63.4688H85.4375V65.8125C85.4375 67.1049 84.3862 68.1562 83.0938 68.1562Z" fill="black"/>
<path d="M68.5625 65.0312H63.875C63.4435 65.0312 63.0938 65.381 63.0938 65.8125C63.0938 66.244 63.4435 66.5938 63.875 66.5938H68.5625C68.994 66.5938 69.3438 66.244 69.3438 65.8125C69.3438 65.381 68.994 65.0312 68.5625 65.0312Z" fill="black"/>
<path d="M39.0775 119.09C38.7295 118.358 38.2255 117.794 37.5655 117.398C36.9055 116.99 36.1375 116.786 35.2615 116.786C34.3855 116.786 33.5935 116.99 32.8855 117.398C32.1895 117.794 31.6375 118.37 31.2295 119.126C30.8335 119.87 30.6355 120.734 30.6355 121.718C30.6355 122.702 30.8335 123.566 31.2295 124.31C31.6375 125.054 32.1895 125.63 32.8855 126.038C33.5935 126.434 34.3855 126.632 35.2615 126.632C36.4855 126.632 37.4935 126.266 38.2855 125.534C39.0775 124.802 39.5395 123.812 39.6715 122.564H34.6675V121.232H41.4175V122.492C41.3215 123.524 40.9975 124.472 40.4455 125.336C39.8935 126.188 39.1675 126.866 38.2675 127.37C37.3675 127.862 36.3655 128.108 35.2615 128.108C34.0975 128.108 33.0355 127.838 32.0755 127.298C31.1155 126.746 30.3535 125.984 29.7895 125.012C29.2375 124.04 28.9615 122.942 28.9615 121.718C28.9615 120.494 29.2375 119.396 29.7895 118.424C30.3535 117.44 31.1155 116.678 32.0755 116.138C33.0355 115.586 34.0975 115.31 35.2615 115.31C36.5935 115.31 37.7695 115.64 38.7895 116.3C39.8215 116.96 40.5715 117.89 41.0395 119.09H39.0775ZM42.9713 123.032C42.9713 122.024 43.1753 121.142 43.5833 120.386C43.9913 119.618 44.5493 119.024 45.2573 118.604C45.9773 118.184 46.7753 117.974 47.6513 117.974C48.5153 117.974 49.2653 118.16 49.9013 118.532C50.5373 118.904 51.0113 119.372 51.3233 119.936V118.136H52.9793V128H51.3233V126.164C50.9993 126.74 50.5133 127.22 49.8653 127.604C49.2293 127.976 48.4853 128.162 47.6333 128.162C46.7573 128.162 45.9653 127.946 45.2573 127.514C44.5493 127.082 43.9913 126.476 43.5833 125.696C43.1753 124.916 42.9713 124.028 42.9713 123.032ZM51.3233 123.05C51.3233 122.306 51.1733 121.658 50.8733 121.106C50.5733 120.554 50.1653 120.134 49.6493 119.846C49.1453 119.546 48.5873 119.396 47.9753 119.396C47.3633 119.396 46.8053 119.54 46.3013 119.828C45.7973 120.116 45.3953 120.536 45.0953 121.088C44.7953 121.64 44.6453 122.288 44.6453 123.032C44.6453 123.788 44.7953 124.448 45.0953 125.012C45.3953 125.564 45.7973 125.99 46.3013 126.29C46.8053 126.578 47.3633 126.722 47.9753 126.722C48.5873 126.722 49.1453 126.578 49.6493 126.29C50.1653 125.99 50.5733 125.564 50.8733 125.012C51.1733 124.448 51.3233 123.794 51.3233 123.05ZM55.1353 123.032C55.1353 122.024 55.3393 121.142 55.7473 120.386C56.1553 119.618 56.7133 119.024 57.4213 118.604C58.1413 118.184 58.9453 117.974 59.8333 117.974C60.6013 117.974 61.3153 118.154 61.9753 118.514C62.6353 118.862 63.1393 119.324 63.4873 119.9V114.68H65.1433V128H63.4873V126.146C63.1633 126.734 62.6833 127.22 62.0473 127.604C61.4113 127.976 60.6673 128.162 59.8153 128.162C58.9393 128.162 58.1413 127.946 57.4213 127.514C56.7133 127.082 56.1553 126.476 55.7473 125.696C55.3393 124.916 55.1353 124.028 55.1353 123.032ZM63.4873 123.05C63.4873 122.306 63.3373 121.658 63.0373 121.106C62.7373 120.554 62.3293 120.134 61.8133 119.846C61.3093 119.546 60.7513 119.396 60.1393 119.396C59.5273 119.396 58.9693 119.54 58.4653 119.828C57.9613 120.116 57.5593 120.536 57.2593 121.088C56.9593 121.64 56.8093 122.288 56.8093 123.032C56.8093 123.788 56.9593 124.448 57.2593 125.012C57.5593 125.564 57.9613 125.99 58.4653 126.29C58.9693 126.578 59.5273 126.722 60.1393 126.722C60.7513 126.722 61.3093 126.578 61.8133 126.29C62.3293 125.99 62.7373 125.564 63.0373 125.012C63.3373 124.448 63.4873 123.794 63.4873 123.05ZM71.9794 117.974C72.8314 117.974 73.5754 118.16 74.2114 118.532C74.8594 118.904 75.3394 119.372 75.6514 119.936V118.136H77.3074V128.216C77.3074 129.116 77.1154 129.914 76.7314 130.61C76.3474 131.318 75.7954 131.87 75.0754 132.266C74.3674 132.662 73.5394 132.86 72.5914 132.86C71.2954 132.86 70.2154 132.554 69.3514 131.942C68.4874 131.33 67.9774 130.496 67.8214 129.44H69.4414C69.6214 130.04 69.9934 130.52 70.5574 130.88C71.1214 131.252 71.7994 131.438 72.5914 131.438C73.4914 131.438 74.2234 131.156 74.7874 130.592C75.3634 130.028 75.6514 129.236 75.6514 128.216V126.146C75.3274 126.722 74.8474 127.202 74.2114 127.586C73.5754 127.97 72.8314 128.162 71.9794 128.162C71.1034 128.162 70.3054 127.946 69.5854 127.514C68.8774 127.082 68.3194 126.476 67.9114 125.696C67.5034 124.916 67.2994 124.028 67.2994 123.032C67.2994 122.024 67.5034 121.142 67.9114 120.386C68.3194 119.618 68.8774 119.024 69.5854 118.604C70.3054 118.184 71.1034 117.974 71.9794 117.974ZM75.6514 123.05C75.6514 122.306 75.5014 121.658 75.2014 121.106C74.9014 120.554 74.4934 120.134 73.9774 119.846C73.4734 119.546 72.9154 119.396 72.3034 119.396C71.6914 119.396 71.1334 119.54 70.6294 119.828C70.1254 120.116 69.7234 120.536 69.4234 121.088C69.1234 121.64 68.9734 122.288 68.9734 123.032C68.9734 123.788 69.1234 124.448 69.4234 125.012C69.7234 125.564 70.1254 125.99 70.6294 126.29C71.1334 126.578 71.6914 126.722 72.3034 126.722C72.9154 126.722 73.4734 126.578 73.9774 126.29C74.4934 125.99 74.9014 125.564 75.2014 125.012C75.5014 124.448 75.6514 123.794 75.6514 123.05ZM89.0755 122.69C89.0755 123.002 89.0575 123.332 89.0215 123.68H81.1375C81.1975 124.652 81.5275 125.414 82.1275 125.966C82.7395 126.506 83.4775 126.776 84.3415 126.776C85.0495 126.776 85.6375 126.614 86.1055 126.29C86.5855 125.954 86.9215 125.51 87.1135 124.958H88.8775C88.6135 125.906 88.0855 126.68 87.2935 127.28C86.5015 127.868 85.5175 128.162 84.3415 128.162C83.4055 128.162 82.5655 127.952 81.8215 127.532C81.0895 127.112 80.5135 126.518 80.0935 125.75C79.6735 124.97 79.4635 124.07 79.4635 123.05C79.4635 122.03 79.6675 121.136 80.0755 120.368C80.4835 119.6 81.0535 119.012 81.7855 118.604C82.5295 118.184 83.3815 117.974 84.3415 117.974C85.2775 117.974 86.1055 118.178 86.8255 118.586C87.5455 118.994 88.0975 119.558 88.4815 120.278C88.8775 120.986 89.0755 121.79 89.0755 122.69ZM87.3835 122.348C87.3835 121.724 87.2455 121.19 86.9695 120.746C86.6935 120.29 86.3155 119.948 85.8355 119.72C85.3675 119.48 84.8455 119.36 84.2695 119.36C83.4415 119.36 82.7335 119.624 82.1455 120.152C81.5695 120.68 81.2395 121.412 81.1555 122.348H87.3835ZM93.2356 119.486V125.3C93.2356 125.78 93.3376 126.122 93.5416 126.326C93.7456 126.518 94.0996 126.614 94.6036 126.614H95.8096V128H94.3336C93.4216 128 92.7376 127.79 92.2816 127.37C91.8256 126.95 91.5976 126.26 91.5976 125.3V119.486H90.3196V118.136H91.5976V115.652H93.2356V118.136H95.8096V119.486H93.2356ZM101.286 128.162C100.53 128.162 99.8522 128.036 99.2522 127.784C98.6522 127.52 98.1782 127.16 97.8302 126.704C97.4822 126.236 97.2902 125.702 97.2542 125.102H98.9462C98.9942 125.594 99.2222 125.996 99.6302 126.308C100.05 126.62 100.596 126.776 101.268 126.776C101.892 126.776 102.384 126.638 102.744 126.362C103.104 126.086 103.284 125.738 103.284 125.318C103.284 124.886 103.092 124.568 102.708 124.364C102.324 124.148 101.73 123.938 100.926 123.734C100.194 123.542 99.5942 123.35 99.1262 123.158C98.6702 122.954 98.2742 122.66 97.9382 122.276C97.6142 121.88 97.4522 121.364 97.4522 120.728C97.4522 120.224 97.6022 119.762 97.9022 119.342C98.2022 118.922 98.6282 118.592 99.1802 118.352C99.7322 118.1 100.362 117.974 101.07 117.974C102.162 117.974 103.044 118.25 103.716 118.802C104.388 119.354 104.748 120.11 104.796 121.07H103.158C103.122 120.554 102.912 120.14 102.528 119.828C102.156 119.516 101.652 119.36 101.016 119.36C100.428 119.36 99.9602 119.486 99.6122 119.738C99.2642 119.99 99.0902 120.32 99.0902 120.728C99.0902 121.052 99.1922 121.322 99.3962 121.538C99.6122 121.742 99.8762 121.91 100.188 122.042C100.512 122.162 100.956 122.3 101.52 122.456C102.228 122.648 102.804 122.84 103.248 123.032C103.692 123.212 104.07 123.488 104.382 123.86C104.706 124.232 104.874 124.718 104.886 125.318C104.886 125.858 104.736 126.344 104.436 126.776C104.136 127.208 103.71 127.55 103.158 127.802C102.618 128.042 101.994 128.162 101.286 128.162Z" fill="#0C0D36"/>
</svg>
